<?xml version="1.0" encoding="UTF-8" standalone="no"?>
<!-- Created with Inkscape (http://www.inkscape.org/) -->

<svg
   width="47.495468mm"
   height="47.495468mm"
   viewBox="0 0 47.495468 47.495468"
   version="1.1"
   id="svg41172"
   inkscape:version="1.1.2 (0a00cf5339, 2022-02-04)"
   sodipodi:docname="start.svg"
   xmlns:inkscape="http://www.inkscape.org/namespaces/inkscape"
   xmlns:sodipodi="http://sodipodi.sourceforge.net/DTD/sodipodi-0.dtd"
   xmlns="http://www.w3.org/2000/svg"
   xmlns:svg="http://www.w3.org/2000/svg">
  <sodipodi:namedview
     id="namedview41174"
     pagecolor="#ffffff"
     bordercolor="#666666"
     borderopacity="1.0"
     inkscape:pageshadow="2"
     inkscape:pageopacity="0.0"
     inkscape:pagecheckerboard="0"
     inkscape:document-units="mm"
     showgrid="false"
     fit-margin-top="0"
     fit-margin-left="0"
     fit-margin-right="0"
     fit-margin-bottom="0"
     inkscape:zoom="0.73584456"
     inkscape:cx="-366.24583"
     inkscape:cy="-277.23246"
     inkscape:window-width="1920"
     inkscape:window-height="1007"
     inkscape:window-x="0"
     inkscape:window-y="37"
     inkscape:window-maximized="1"
     inkscape:current-layer="g36304"
     showguides="true"
     inkscape:guide-bbox="true">
    <sodipodi:guide
       position="-268.95399,122.64437"
       orientation="1,0"
       id="guide41387" />
  </sodipodi:namedview>
  <defs
     id="defs41169" />
  <g
     inkscape:label="Calque 1"
     inkscape:groupmode="layer"
     id="layer1"
     transform="translate(-139.26135,-221.11546)">
    <g
       id="g36304"
       transform="translate(2.0669841,4.2919793)"
       style="fill:#076633;fill-opacity:1">
      <path
         style="fill:#076633;fill-opacity:1;stroke-width:0.0846667"
         d="m 156.02116,242.5157 c 0,-0.0738 0.0373,-0.11111 0.0829,-0.0829 0.0456,0.0282 0.1599,0.01 0.254,-0.0403 0.0941,-0.0504 0.17108,-0.0721 0.17108,-0.0484 0,0.0237 -0.1143,0.10224 -0.254,0.17448 -0.23062,0.11926 -0.254,0.119 -0.254,-0.003 z m 1.36135,-4.32223 c 0.004,-0.0986 0.0241,-0.1187 0.0512,-0.0511 0.0245,0.0611 0.0214,0.13414 -0.007,0.16227 -0.0281,0.0281 -0.0481,-0.0219 -0.0445,-0.11112 z m 0.26068,-1.47461 c 0,-0.11642 0.0192,-0.16404 0.0427,-0.10584 0.0235,0.0582 0.0235,0.15346 0,0.21167 -0.0235,0.0582 -0.0427,0.0106 -0.0427,-0.10583 z m 0.078,-0.72672 c 0.004,-0.0986 0.0241,-0.1187 0.0512,-0.0512 0.0245,0.0611 0.0214,0.13415 -0.007,0.16228 -0.0281,0.0281 -0.0481,-0.0219 -0.0445,-0.11112 z m 0.184,-1.85562 c 9.4e-4,-0.18626 0.0183,-0.25249 0.0385,-0.14718 0.0202,0.10532 0.0195,0.25772 -0.002,0.33867 -0.0212,0.081 -0.0378,-0.005 -0.0368,-0.19149 z m 0,-3.89466 c 9.4e-4,-0.18627 0.0183,-0.2525 0.0385,-0.14718 0.0202,0.10532 0.0195,0.25772 -0.002,0.33866 -0.0212,0.081 -0.0378,-0.005 -0.0368,-0.19148 z m -0.0993,-1.10773 c 0.004,-0.0986 0.0241,-0.11869 0.0512,-0.0512 0.0245,0.0611 0.0214,0.13415 -0.007,0.16228 -0.0281,0.0281 -0.0482,-0.0219 -0.0445,-0.11113 z m -0.0847,-0.762 c 0.004,-0.0986 0.0241,-0.11869 0.0512,-0.0512 0.0245,0.0611 0.0214,0.13415 -0.007,0.16228 -0.0281,0.0281 -0.0481,-0.0219 -0.0445,-0.11113 z m -0.078,-0.71261 c 0,-0.11641 0.0192,-0.16404 0.0427,-0.10583 0.0235,0.0582 0.0235,0.15346 0,0.21167 -0.0235,0.0582 -0.0427,0.0106 -0.0427,-0.10584 z m -0.26068,-1.48872 c 0.004,-0.0986 0.0241,-0.11869 0.0512,-0.0512 0.0245,0.0611 0.0214,0.13414 -0.007,0.16228 -0.0281,0.0281 -0.0481,-0.0219 -0.0445,-0.11113 z m -1.36135,-4.31094 c 0,-0.0734 0.0504,-0.10234 0.127,-0.0729 0.0699,0.0268 0.127,0.0596 0.127,0.0729 0,0.0133 -0.0572,0.0461 -0.127,0.0729 -0.0766,0.0294 -0.127,4.3e-4 -0.127,-0.0729 z"
         id="path36320" />
      <path
         style="fill:#076633;fill-opacity:1;stroke-width:0.0846667"
         d="m 155.94318,242.59614 c 0.004,-0.0986 0.0241,-0.1187 0.0511,-0.0512 0.0245,0.0611 0.0215,0.13415 -0.007,0.16228 -0.0281,0.0281 -0.0481,-0.0219 -0.0445,-0.11112 z m 1.96602,-9.17928 c 0,-0.25612 0.0159,-0.36089 0.0353,-0.23284 0.0194,0.12806 0.0194,0.33761 0,0.46567 -0.0194,0.12806 -0.0353,0.0233 -0.0353,-0.23283 z m 12.90968,-1.11559 c 0.0763,-0.0763 0.0753,-0.13069 -0.004,-0.23283 -0.0917,-0.11774 -0.0865,-0.11963 0.0454,-0.0162 0.1145,0.0898 0.12686,0.14399 0.0531,0.23283 -0.0528,0.0637 -0.11808,0.11577 -0.14498,0.11577 -0.0269,0 -0.004,-0.0448 0.0507,-0.0996 z m -12.90968,-1.33975 c 0,-0.25611 0.0159,-0.36089 0.0353,-0.23283 0.0194,0.12806 0.0194,0.33761 0,0.46567 -0.0194,0.12806 -0.0353,0.0233 -0.0353,-0.23284 z m -1.96602,-9.19339 c 0.004,-0.0986 0.0241,-0.11869 0.0511,-0.0512 0.0245,0.0611 0.0215,0.13415 -0.007,0.16228 -0.0281,0.0281 -0.0481,-0.0219 -0.0445,-0.11113 z"
         id="path36318" />
      <path
         style="fill:#076633;fill-opacity:1;stroke-width:0.0846667"
         d="m 157.81567,234.72919 c 0.002,-0.1397 0.0207,-0.1866 0.0422,-0.10422 0.0215,0.0824 0.0201,0.19668 -0.003,0.254 -0.0232,0.0573 -0.0408,-0.0101 -0.039,-0.14978 z m 0.0991,-2.54 c 2.5e-4,-0.46567 0.0144,-0.64536 0.0316,-0.39933 0.0172,0.24604 0.017,0.62704 -4.2e-4,0.84667 -0.0174,0.21963 -0.0314,0.0183 -0.0312,-0.44734 z m -0.0991,-2.54 c 0.002,-0.1397 0.0207,-0.1866 0.0422,-0.10422 0.0215,0.0824 0.0201,0.19668 -0.003,0.254 -0.0232,0.0573 -0.0408,-0.0101 -0.039,-0.14978 z"
         id="path36316" />
      <path
         style="fill:#076633;fill-opacity:1;stroke-width:0.0846667"
         d="m 170.95072,232.19291 c 0,-0.0678 0.0324,-0.10326 0.0719,-0.0788 0.0396,0.0245 0.05,0.0799 0.0232,0.12327 -0.0685,0.11078 -0.0952,0.0983 -0.0952,-0.0445 z"
         id="path36314" />
      <path
         style="fill:#076633;fill-opacity:1;stroke-width:0.0846667"
         d="m 157.72118,235.39947 c 0.004,-0.0986 0.0241,-0.1187 0.0512,-0.0512 0.0245,0.0611 0.0214,0.13414 -0.007,0.16227 -0.0281,0.0281 -0.0481,-0.0219 -0.0445,-0.11112 z m 0.0847,-1.10067 c 0.004,-0.0986 0.0241,-0.11869 0.0512,-0.0512 0.0245,0.0611 0.0214,0.13414 -0.007,0.16228 -0.0281,0.0281 -0.0482,-0.0219 -0.0445,-0.11113 z m 0,-4.23333 c 0.004,-0.0986 0.0241,-0.1187 0.0512,-0.0512 0.0245,0.0611 0.0214,0.13414 -0.007,0.16227 -0.0281,0.0281 -0.0482,-0.0219 -0.0445,-0.11112 z m -0.078,-1.13595 c 0,-0.11641 0.0192,-0.16404 0.0427,-0.10583 0.0235,0.0582 0.0235,0.15346 0,0.21167 -0.0235,0.0582 -0.0427,0.0106 -0.0427,-0.10584 z"
         id="path36312" />
      <path
         style="fill:#076633;fill-opacity:1;stroke-width:0.0846667"
         d="m 157.72118,235.14547 c 0.004,-0.0986 0.0241,-0.1187 0.0512,-0.0511 0.0245,0.0611 0.0214,0.13414 -0.007,0.16227 -0.0281,0.0281 -0.0481,-0.0219 -0.0445,-0.11112 z m 0.0847,-1.10067 c 0.004,-0.0986 0.0241,-0.11869 0.0512,-0.0512 0.0245,0.0611 0.0214,0.13414 -0.007,0.16228 -0.0281,0.0281 -0.0482,-0.0219 -0.0445,-0.11113 z m 0,-3.72533 c 0.004,-0.0986 0.0241,-0.1187 0.0512,-0.0512 0.0245,0.0611 0.0214,0.13414 -0.007,0.16227 -0.0281,0.0281 -0.0482,-0.0219 -0.0445,-0.11112 z"
         id="path36310" />
      <path
         style="fill:#076633;fill-opacity:1;stroke-width:0.0846667"
         d="m 159.85883,262.09645 c -5.74871,-8.78226 -10.22866,-16.83067 -12.4048,-22.2857 -1.75943,-4.41043 -2.14145,-7.03363 -1.50453,-10.33089 0.93067,-4.81791 4.19464,-9.00972 8.67466,-11.14058 5.65924,-2.69174 12.38013,-1.74547 17.16399,2.41661 2.39956,2.08768 4.21007,5.15806 4.9235,8.34962 0.46246,2.06883 0.49164,3.92636 0.0927,5.89988 -1.07706,5.32761 -6.12598,15.1787 -13.73359,26.79597 -0.9072,1.38536 -1.67386,2.51827 -1.70368,2.51759 -0.0298,-6.8e-4 -0.70851,-1.00082 -1.50821,-2.2225 z m -3.73041,-19.36961 c 0.0823,-0.0764 0.25373,-0.19192 0.381,-0.25673 0.12728,-0.0648 0.38114,-0.24235 0.56415,-0.39454 0.183,-0.15219 0.36559,-0.27671 0.40574,-0.27671 0.068,0 0.16378,-0.0679 0.43396,-0.30773 0.12966,-0.11506 1.18337,-0.85507 1.83322,-1.28745 0.25612,-0.1704 0.51228,-0.35372 0.56926,-0.40736 0.057,-0.0537 0.24747,-0.18557 0.42333,-0.29317 0.17586,-0.10759 0.36388,-0.23846 0.41783,-0.29082 0.0539,-0.0524 0.30159,-0.22459 0.55033,-0.38273 0.24874,-0.15815 0.5475,-0.37467 0.66392,-0.48117 0.11642,-0.1065 0.31644,-0.24027 0.4445,-0.29727 0.12806,-0.057 0.23283,-0.13244 0.23283,-0.16764 0,-0.0352 0.0361,-0.064 0.0803,-0.064 0.0442,0 0.17424,-0.0871 0.28906,-0.19346 0.11481,-0.10641 0.31627,-0.24928 0.44768,-0.3175 0.13141,-0.0682 0.32091,-0.19386 0.4211,-0.2792 0.17819,-0.15178 1.04986,-0.76326 1.97919,-1.3884 0.25611,-0.17229 0.48471,-0.33808 0.508,-0.36842 0.0233,-0.0303 0.25188,-0.19203 0.508,-0.35929 0.25611,-0.16726 0.56091,-0.38103 0.67733,-0.47504 0.11642,-0.094 0.24185,-0.17177 0.27874,-0.1728 0.0369,-0.001 0.11309,-0.0407 0.16933,-0.0882 0.0563,-0.0475 0.21656,-0.18306 0.35626,-0.30128 0.1397,-0.11823 0.36644,-0.27482 0.50386,-0.34799 0.13743,-0.0732 0.30221,-0.18537 0.36618,-0.24934 0.15107,-0.15106 0.83812,-0.62372 0.90664,-0.62372 0.0291,0 0.16867,-0.10825 0.31024,-0.24056 l 0.25739,-0.24056 -0.36782,-0.28642 c -0.2023,-0.15753 -0.38687,-0.30652 -0.41015,-0.33108 -0.0233,-0.0246 -0.15164,-0.10108 -0.28524,-0.17005 -0.1336,-0.069 -0.3241,-0.21112 -0.42333,-0.3159 -0.0992,-0.10478 -0.21398,-0.19117 -0.25499,-0.19197 -0.0968,-0.002 -0.93281,-0.59839 -0.96967,-0.69188 -0.0155,-0.0394 -0.0631,-0.0716 -0.10563,-0.0716 -0.068,0 -0.89738,-0.55529 -1.00914,-0.67566 -0.0233,-0.0251 -0.21176,-0.15552 -0.41884,-0.28987 -0.20707,-0.13435 -0.41662,-0.27742 -0.46566,-0.31793 -0.049,-0.0405 -0.56542,-0.40115 -1.1475,-0.80142 -0.58209,-0.40026 -1.07739,-0.7522 -1.10067,-0.78207 -0.0233,-0.0299 -0.14192,-0.10555 -0.26364,-0.16816 -0.12172,-0.0626 -0.32009,-0.20543 -0.44081,-0.31737 -0.12072,-0.11194 -0.25926,-0.20352 -0.30786,-0.20352 -0.0486,0 -0.0884,-0.0294 -0.0884,-0.0654 0,-0.036 -0.13158,-0.13627 -0.29241,-0.22288 -0.16083,-0.0866 -0.36085,-0.2191 -0.4445,-0.29442 -0.14361,-0.12932 -0.59848,-0.44551 -1.58381,-1.10094 -0.23702,-0.15767 -0.44999,-0.3114 -0.47328,-0.34163 -0.0233,-0.0302 -0.37571,-0.27958 -0.78316,-0.55411 -0.40746,-0.27453 -0.74084,-0.53037 -0.74084,-0.56854 0,-0.0382 -0.0408,-0.0694 -0.0906,-0.0694 -0.0921,0 -0.73563,-0.41995 -0.94025,-0.61353 -0.0617,-0.0584 -0.21177,-0.15742 -0.33349,-0.22011 -0.12172,-0.0627 -0.32008,-0.20556 -0.4408,-0.3175 -0.12072,-0.11194 -0.23688,-0.20352 -0.25813,-0.20352 -0.0213,0 -0.23973,-0.13244 -0.48551,-0.2943 -0.24578,-0.16187 -0.46147,-0.27971 -0.4793,-0.26187 -0.0178,0.0178 0.0354,0.1598 0.11822,0.31547 0.0829,0.15566 0.14281,0.31161 0.13324,0.34653 -0.01,0.0349 0.0207,0.0635 0.0673,0.0635 0.0466,0 0.086,0.0476 0.0875,0.10583 0.002,0.0582 0.0765,0.25824 0.16646,0.4445 0.09,0.18627 0.16488,0.40535 0.16646,0.48684 0.002,0.0815 0.0362,0.14816 0.077,0.14816 0.0777,0 0.21329,0.47434 0.1875,0.65617 -0.008,0.0582 0.0248,0.10583 0.0734,0.10583 0.0486,0 0.0821,0.0286 0.0745,0.0635 -0.008,0.0349 0.0137,0.16099 0.0474,0.28015 0.0337,0.11916 0.0752,0.29061 0.0921,0.381 0.0169,0.0904 0.0337,0.17388 0.0372,0.18552 0.004,0.0116 0.004,0.0307 5.1e-4,0.0423 -0.003,0.0117 0.0346,0.12789 0.0842,0.25832 0.0496,0.13044 0.10996,0.39714 0.13414,0.59267 0.0242,0.19553 0.0794,0.46981 0.12275,0.60951 0.0433,0.1397 0.10203,0.46355 0.13043,0.71967 0.0284,0.25612 0.0665,0.56092 0.0847,0.67733 0.30214,1.93517 0.3021,6.69984 -7e-5,8.55134 -0.019,0.11641 -0.0594,0.44026 -0.0899,0.71966 -0.0304,0.2794 -0.0857,0.5654 -0.12278,0.63554 -0.0371,0.0701 -0.0891,0.32222 -0.11561,0.56015 -0.0265,0.23793 -0.0863,0.53296 -0.13296,0.65562 -0.0466,0.12267 -0.0644,0.22303 -0.0396,0.22303 0.0249,0 0.0155,0.0476 -0.0209,0.10583 -0.0364,0.0582 -0.0744,0.16074 -0.0845,0.22785 -0.0101,0.0671 -0.046,0.21951 -0.0798,0.33867 -0.0337,0.11916 -0.0551,0.24522 -0.0474,0.28015 0.008,0.0349 -0.0199,0.0635 -0.0612,0.0635 -0.0413,0 -0.10077,0.17145 -0.13219,0.381 -0.0314,0.20955 -0.0929,0.381 -0.13662,0.381 -0.0437,0 -0.0808,0.0667 -0.0824,0.14816 -0.002,0.0815 -0.0765,0.30057 -0.16646,0.48684 -0.09,0.18626 -0.16488,0.38629 -0.16646,0.4445 -0.002,0.0582 -0.0409,0.10583 -0.0875,0.10583 -0.0466,0 -0.0768,0.0286 -0.0673,0.0635 0.01,0.0349 -0.0476,0.18543 -0.127,0.33446 -0.0794,0.14903 -0.14441,0.29071 -0.14441,0.31485 0,0.0734 0.28693,-0.0605 0.44593,-0.20816 z"
         id="path36308" />
      <path
         style="fill:#076633;fill-opacity:1;stroke-width:0.0846667"
         d="m 157.29784,238.02414 c 0.004,-0.0986 0.0241,-0.1187 0.0512,-0.0512 0.0245,0.0611 0.0215,0.13415 -0.007,0.16228 -0.0281,0.0281 -0.0481,-0.0219 -0.0445,-0.11112 z m 0.254,-1.60867 c 0.004,-0.0986 0.0241,-0.1187 0.0512,-0.0512 0.0245,0.0611 0.0214,0.13414 -0.007,0.16227 -0.0281,0.0281 -0.0481,-0.0219 -0.0445,-0.11112 z m 0.28179,-4.26861 c 0,-0.76835 0.0128,-1.08268 0.0285,-0.6985 0.0157,0.38417 0.0157,1.01282 0,1.397 -0.0157,0.38417 -0.0285,0.0699 -0.0285,-0.6985 z m -0.28179,-4.19806 c 0.004,-0.0986 0.0241,-0.11869 0.0512,-0.0512 0.0245,0.0611 0.0214,0.13414 -0.007,0.16228 -0.0281,0.0281 -0.0481,-0.0219 -0.0445,-0.11113 z"
         id="path36306" />
      <path
         style="fill:#ffffff;stroke-width:1.35898"
         d="m 73.332929,93.430059 c 2.326728,-6.026771 5.052516,-20.887083 5.537724,-30.19028 0.553385,-10.610395 -2.411187,-33.623669 -4.940127,-38.349035 -0.79484,-1.485173 -1.131347,-3.01413 -0.747793,-3.397684 1.023242,-1.023242 51.843677,34.822335 51.843677,36.567308 0,1.187357 -50.380641,37.650527 -52.126487,37.726733 -0.266828,0.01165 -0.07197,-1.049022 0.433006,-2.357042 z"
         id="path41463"
         transform="matrix(0.26458333,0,0,0.26458333,137.19437,216.82348)" />
    </g>
  </g>
</svg>
